<svg width="245" height="226" viewBox="0 0 245 226" fill="none" xmlns="http://www.w3.org/2000/svg">
<g id="Iconly/Bulk/Send">
<g id="Send">
<path id="Fill 1" d="M218.738 24.279C213.634 19.4671 206.08 17.6873 199.036 19.5707L34.7841 63.3487C27.3524 65.2509 22.0849 70.6843 20.6659 77.5773C19.2164 84.6022 24.2797 93.5292 30.8947 97.2582L82.2528 126.186C87.5203 129.162 94.3191 128.418 98.678 124.388L157.488 70.1382C160.449 67.3037 165.349 67.3037 168.309 70.1382C171.269 72.8596 171.269 77.2948 168.309 80.1198L109.397 134.369C105.028 138.4 104.211 144.652 107.427 149.521L138.807 197.075C142.482 202.715 148.811 205.927 155.753 205.927C156.569 205.927 157.488 205.926 158.305 205.823C166.267 204.891 172.597 199.89 174.944 192.828L223.638 42.4532C225.782 36.0498 223.842 29.0815 218.738 24.279" fill="white"/>
<path id="Combined Shape" opacity="0.4" fill-rule="evenodd" clip-rule="evenodd" d="M30.7324 158.274C28.7724 158.274 26.8124 157.586 25.322 156.202C22.3309 153.443 22.3309 148.979 25.322 146.22L39.2564 133.357C42.2474 130.607 47.0964 130.607 50.0874 133.357C53.0682 136.116 53.0682 140.589 50.0874 143.348L36.1428 156.202C34.6524 157.586 32.6924 158.274 30.7324 158.274ZM69.128 169.502C67.168 169.502 65.208 168.815 63.7176 167.43C60.7265 164.671 60.7265 160.208 63.7176 157.449L77.6519 144.586C80.643 141.836 85.4919 141.836 88.483 144.586C91.4638 147.345 91.4638 151.818 88.483 154.577L74.5384 167.43C73.048 168.815 71.088 169.502 69.128 169.502ZM71.7178 203.101C73.2082 204.485 75.1682 205.172 77.1282 205.172C79.0882 205.172 81.0482 204.485 82.5386 203.101L96.4832 190.247C99.464 187.488 99.464 183.015 96.4832 180.256C93.4921 177.506 88.6432 177.506 85.6521 180.256L71.7178 193.119C68.7267 195.878 68.7267 200.342 71.7178 203.101Z" fill="white"/>
</g>
</g>
</svg>
